<svg width="24" height="24" viewBox="0 0 24 24" fill="none" xmlns="http://www.w3.org/2000/svg">
<path fill-rule="evenodd" clip-rule="evenodd" d="M11.5 13H16.5C17.8807 13 19 11.8807 19 10.5C19 9.11929 17.8807 8 16.5 8L11.5 8C10.1193 8 9 9.11929 9 10.5C9 11.8807 10.1193 13 11.5 13ZM21 10.5C21 8.01472 18.9853 6 16.5 6H11.5C9.01472 6 7 8.01472 7 10.5C7 12.9853 9.01472 15 11.5 15H16.5C18.9853 15 21 12.9853 21 10.5Z" fill="#1C9BF1"/>
<path fill-rule="evenodd" clip-rule="evenodd" d="M7.5 16H12.5C13.8807 16 15 14.8807 15 13.5C15 12.1193 13.8807 11 12.5 11L7.5 11C6.11929 11 5 12.1193 5 13.5C5 14.8807 6.11929 16 7.5 16ZM17 13.5C17 11.0147 14.9853 9 12.5 9H7.5C5.01472 9 3 11.0147 3 13.5C3 15.9853 5.01472 18 7.5 18H12.5C14.9853 18 17 15.9853 17 13.5Z" fill="#1C9BF1"/>
</svg>
