<svg width="24" height="24" viewBox="0 0 24 24" fill="none" xmlns="http://www.w3.org/2000/svg">
<path d="M10.234 22.8099C11.9934 22.9173 13.7808 22.7467 15.5464 22.7467C15.9596 22.7467 16.4115 22.7995 16.7999 22.6203C17.1377 22.4645 17.4764 22.2984 17.8014 22.1149C18.3094 21.8282 18.8333 21.5205 19.2937 21.1533C19.701 20.8283 19.9194 20.3913 20.2156 19.967C20.4833 19.5835 20.8447 19.2107 20.9517 18.7316C21.0364 18.3529 20.9863 17.8879 20.975 17.5032C20.9234 15.7585 19.1863 14.721 17.7318 14.3831C17.2836 14.279 17.0183 14.3292 16.7336 14.699C16.5195 14.9771 16.2718 15.2376 16.0206 15.4781C15.7332 15.7534 15.4387 15.9206 15.4271 16.3661C15.4169 16.752 15.4271 17.9103 15.4271 17.5243C15.4271 16.5759 15.6674 15.6438 15.7122 14.6955C15.7835 13.1865 15.7852 11.6579 15.7852 10.1469C15.7852 8.40676 15.7944 6.61035 15.3972 4.91048C15.2122 4.11881 15.1095 2.87583 14.5549 2.25717C14.159 1.81553 13.4088 1.51574 12.8836 1.29902C12.1032 0.977048 11.1252 0.850489 10.3501 1.24989C9.63939 1.61606 8.79209 2.16763 8.64887 3.05035C8.51207 3.89356 8.65058 4.85678 8.78815 5.68963C8.98813 6.90024 9.01813 8.15006 9.0866 9.3748C9.1432 10.387 9.2062 11.4068 9.14629 12.4212C9.11549 12.9429 8.96825 13.4444 8.93406 13.9655C8.90391 14.425 8.90387 14.882 8.86442 15.3413C8.85252 15.4799 8.83118 15.7051 8.89427 15.8291C9.15139 16.3345 8.73457 15.789 8.6124 15.6291C8.09544 14.9523 7.55379 14.3983 6.89795 13.8777C6.58792 13.6316 6.32411 13.402 5.94954 13.2846C5.5096 13.1466 5.07952 13.6824 4.77563 13.9163C4.26615 14.3085 3.89525 14.6726 3.56192 15.243C2.75273 16.6275 2.82284 18.6395 3.73768 19.9389C4.78091 21.4208 6.21065 22.9317 8.0586 22.9959C8.47336 23.0103 8.87605 22.9934 9.26899 22.8414C9.46976 22.7638 9.66841 22.6649 9.87916 22.6203C10.2883 22.5337 10.7159 22.457 10.7712 21.9886" stroke="#45494F" stroke-width="2" stroke-linecap="round"/>
<path d="M11.0053 7.09877C11.2982 7.37548 11.588 7.69572 11.9478 7.8878C12.3082 8.08019 12.734 8.18431 13.1383 8.22412C13.7417 8.28354 14.4923 8.27598 15.0566 8.01951" stroke="#45494F" stroke-width="3" stroke-linecap="round"/>
</svg>
